<svg width="48" height="60" viewBox="0 0 48 60" fill="none" xmlns="http://www.w3.org/2000/svg">
<path d="M35.8583 12.5508C35.8583 10.9764 35.5482 9.41734 34.9457 7.96273C34.3431 6.50812 33.46 5.18642 32.3467 4.07311C31.2334 2.9598 29.9117 2.07668 28.4572 1.47416C27.0025 0.871637 25.4435 0.561523 23.869 0.561523C22.2946 0.561524 20.7356 0.871637 19.2809 1.47416C17.8264 2.07668 16.5046 2.9598 15.3913 4.07311C14.278 5.18642 13.3948 6.50812 12.7923 7.96273C12.1898 9.41734 11.8797 10.9764 11.8797 12.5508H16.6666C16.6666 11.605 16.8529 10.6684 17.2149 9.79462C17.5769 8.92078 18.1074 8.1268 18.7762 7.458C19.445 6.7892 20.2389 6.25868 21.1128 5.89673C21.9866 5.53477 22.9233 5.34848 23.869 5.34848C24.8148 5.34848 25.7515 5.53477 26.6252 5.89672C27.499 6.25868 28.2931 6.7892 28.9619 7.458C29.6307 8.1268 30.1611 8.92078 30.5231 9.79462C30.8851 10.6684 31.0713 11.605 31.0713 12.5508H35.8583Z" fill="#121212"/>
<path d="M39.9225 11.9414H8.22193C3.95722 11.9414 0.5 15.3986 0.5 19.6633V51.364C0.5 55.6287 3.95722 59.0859 8.22193 59.0859H39.9225C44.1872 59.0859 47.6445 55.6287 47.6445 51.364V19.6633C47.6445 15.3986 44.1872 11.9414 39.9225 11.9414Z" fill="#FF5634"/>
</svg>
