<svg width="19" height="19" viewBox="0 0 19 19" fill="none" xmlns="http://www.w3.org/2000/svg">
<g clip-path="url(#clip0_1_613)">
<path d="M8.99402 11.7C8.82402 11.7 8.68402 11.64 8.57402 11.52L4.37402 7.32C4.24402 7.21 4.18902 7.07 4.20902 6.9C4.20902 6.75 4.26402 6.61 4.37402 6.48C4.49402 6.38 4.63902 6.325 4.80902 6.315C4.97902 6.305 5.11402 6.36 5.21402 6.48L8.99402 10.245L12.774 6.48C12.884 6.36 13.0215 6.305 13.1865 6.315C13.3515 6.325 13.489 6.385 13.599 6.495C13.709 6.605 13.769 6.7425 13.779 6.9075C13.789 7.0725 13.734 7.21 13.614 7.32L9.41402 11.52C9.31402 11.64 9.17402 11.7 8.99402 11.7Z" fill="#121212"/>
</g>
<defs>
<clipPath id="clip0_1_613">
<rect width="14.41" height="15" fill="white" transform="matrix(1 0 0 -1 4.20001 16.5)"/>
</clipPath>
</defs>
</svg>
