<svg width="20" height="25" viewBox="0 0 20 25" fill="none" xmlns="http://www.w3.org/2000/svg">
<g clip-path="url(#clip0_1_427)">
<path d="M11.038 2.41512C11.39 1.95112 11.798 1.55912 12.262 1.23912C12.63 0.983126 13.03 0.783125 13.462 0.639124C13.75 0.527124 14.046 0.447124 14.35 0.399124L14.71 0.375124L14.734 0.711124C14.75 0.983126 14.734 1.26312 14.686 1.55112C14.622 1.96712 14.502 2.36712 14.326 2.75113C14.134 3.23112 13.862 3.67912 13.51 4.09513C13.142 4.54313 12.734 4.90313 12.286 5.17513C11.918 5.39912 11.542 5.55912 11.158 5.65512C10.886 5.71913 10.614 5.75113 10.342 5.75113L10.03 5.72713L10.006 5.46313C9.98999 5.23912 9.99799 4.99912 10.03 4.74312C10.078 4.39112 10.166 4.03913 10.294 3.68712C10.47 3.23912 10.718 2.81512 11.038 2.41512ZM10.222 7.07113C10.366 7.07113 10.55 7.03112 10.774 6.95112C10.902 6.91912 11.126 6.83912 11.446 6.71112C12.006 6.48713 12.446 6.32713 12.766 6.23112C13.326 6.07113 13.862 5.99113 14.374 5.99113C14.982 5.99113 15.558 6.07113 16.102 6.23112C16.566 6.37512 16.998 6.56713 17.398 6.80713C17.718 7.01513 18.014 7.24713 18.286 7.50312C18.462 7.67912 18.622 7.87113 18.766 8.07912L18.934 8.31913L18.67 8.48712C18.462 8.63112 18.254 8.79113 18.046 8.96712C17.758 9.23913 17.51 9.52712 17.302 9.83113C17.03 10.2151 16.822 10.6311 16.678 11.0791C16.502 11.6071 16.414 12.1591 16.414 12.7351C16.414 13.3911 16.526 14.0071 16.75 14.5831C16.926 15.0631 17.182 15.5111 17.518 15.9271C17.79 16.2631 18.102 16.5671 18.454 16.8391C18.71 17.0311 18.966 17.1991 19.222 17.3431L19.558 17.4871L19.318 18.1351C19.094 18.6631 18.854 19.1671 18.598 19.6471C18.246 20.3511 17.878 20.9671 17.494 21.4951C17.03 22.1511 16.558 22.6551 16.078 23.0071C15.518 23.4391 14.958 23.6551 14.398 23.6551C14.094 23.6551 13.774 23.6071 13.438 23.5111C13.23 23.4631 12.922 23.3631 12.514 23.2111C12.106 23.0591 11.79 22.9511 11.566 22.8871C11.198 22.7911 10.854 22.7431 10.534 22.7431C10.182 22.7431 9.78199 22.8071 9.33399 22.9351C9.06199 22.9991 8.68599 23.1191 8.20599 23.2951C7.82199 23.4391 7.54999 23.5351 7.38999 23.5831C7.11799 23.6631 6.88599 23.7031 6.69399 23.7031C6.03799 23.7031 5.33399 23.3751 4.58199 22.7191C3.87799 22.0951 3.21799 21.2471 2.60199 20.1751C1.98599 19.1031 1.49399 17.9671 1.12599 16.7671C0.741988 15.4711 0.549988 14.2551 0.549988 13.1191C0.549988 11.6471 0.837988 10.3511 1.41399 9.23112C1.92599 8.20712 2.62199 7.41512 3.50199 6.85513C4.33399 6.31112 5.22199 6.03913 6.16599 6.03913C6.62999 6.03913 7.10999 6.11112 7.60599 6.25513C7.90999 6.33512 8.32599 6.47912 8.85399 6.68712C9.18999 6.81512 9.43799 6.90313 9.59799 6.95112C9.83799 7.03112 10.046 7.07113 10.222 7.07113Z" fill="white"/>
</g>
<defs>
<clipPath id="clip0_1_427">
<rect width="19.2" height="24" fill="white" transform="matrix(1 0 0 -1 0.549988 24.375)"/>
</clipPath>
</defs>
</svg>
