<svg width="32" height="18" viewBox="0 0 32 18" fill="none" xmlns="http://www.w3.org/2000/svg">
<g id="Icon" clip-path="url(#clip0_1_437)">
<path id="Vector" d="M22.176 13.0739C21.836 13.0739 21.547 12.9549 21.309 12.7169C21.071 12.4789 20.952 12.1927 20.952 11.8584C20.952 11.524 21.071 11.235 21.309 10.9914C21.547 10.7477 21.8332 10.6259 22.1675 10.6259C22.5018 10.6259 22.788 10.7477 23.026 10.9914C23.264 11.235 23.383 11.524 23.383 11.8584C23.383 12.1927 23.264 12.4789 23.026 12.7169C22.788 12.9549 22.5047 13.0739 22.176 13.0739ZM8.67801 13.0739C8.33801 13.0739 8.04901 12.9549 7.81101 12.7169C7.57301 12.4789 7.45401 12.1927 7.45401 11.8584C7.45401 11.524 7.57301 11.235 7.81101 10.9914C8.04901 10.7477 8.33518 10.6259 8.66951 10.6259C9.00385 10.6259 9.29285 10.7477 9.53651 10.9914C9.78018 11.235 9.90201 11.524 9.90201 11.8584C9.90201 12.1927 9.78018 12.4789 9.53651 12.7169C9.29285 12.9549 9.00668 13.0739 8.67801 13.0739ZM22.601 5.71286L25.049 1.49686C25.117 1.37219 25.134 1.24186 25.1 1.10586C25.066 0.969858 24.9867 0.867859 24.862 0.799858C24.7373 0.731859 24.607 0.714859 24.471 0.748859C24.335 0.782858 24.233 0.862192 24.165 0.986858L21.7 5.27086C19.7507 4.37553 17.6597 3.92786 15.427 3.92786C13.1943 3.92786 11.1033 4.37553 9.15401 5.27086L6.67201 0.986858C6.60401 0.862192 6.50201 0.782858 6.36601 0.748859C6.23001 0.714859 6.10251 0.731859 5.98351 0.799858C5.86451 0.867859 5.78801 0.969858 5.75401 1.10586C5.72001 1.24186 5.73701 1.37219 5.80501 1.49686L8.23601 5.71286C6.84201 6.47219 5.60668 7.43553 4.53001 8.60286C3.45335 9.77019 2.59768 11.0849 1.96301 12.5469C1.29435 14.0315 0.892012 15.6012 0.756012 17.2559H30.081C29.945 15.6012 29.5483 14.0315 28.891 12.5469C28.245 11.0849 27.3837 9.77019 26.307 8.60286C25.2303 7.43553 23.995 6.47219 22.601 5.71286Z" fill="white"/>
</g>
<defs>
<clipPath id="clip0_1_437">
<rect width="31.02" height="17" fill="white" transform="matrix(1 0 0 -1 0.75 17.375)"/>
</clipPath>
</defs>
</svg>
