<svg width="162" height="49" viewBox="0 0 162 49" fill="none" xmlns="http://www.w3.org/2000/svg">
<g id="6216c3e8db8e185b2e172d35_logo-deliver-template.svg" clip-path="url(#clip0_1_580)">
<path id="Vector" d="M28.9634 10.1513C28.9634 8.8839 28.7138 7.62887 28.2288 6.45791C27.7437 5.28695 27.0328 4.22298 26.1366 3.32677C25.2404 2.43055 24.1764 1.71964 23.0055 1.23461C21.8345 0.74958 20.5795 0.499939 19.312 0.499939C18.0446 0.499939 16.7896 0.74958 15.6186 1.23461C14.4477 1.71964 13.3837 2.43055 12.4875 3.32677C11.5913 4.22298 10.8803 5.28695 10.3953 6.45791C9.9103 7.62887 9.66064 8.8839 9.66064 10.1513H13.5141C13.5141 9.38995 13.6641 8.63601 13.9555 7.93258C14.2469 7.22914 14.6739 6.58999 15.2123 6.0516C15.7507 5.51322 16.3898 5.08615 17.0933 4.79478C17.7967 4.5034 18.5507 4.35344 19.312 4.35344C20.0734 4.35344 20.8274 4.5034 21.5308 4.79477C22.2342 5.08615 22.8734 5.51322 23.4118 6.0516C23.9502 6.58999 24.3772 7.22914 24.6686 7.93258C24.96 8.63601 25.1099 9.38995 25.1099 10.1513H28.9634Z" fill="#121212"/>
<path id="Vector_2" d="M32.2351 9.66064H6.71615C3.28306 9.66064 0.5 12.4437 0.5 15.8768V41.3958C0.5 44.8289 3.28306 47.6119 6.71615 47.6119H32.2351C35.6682 47.6119 38.4513 44.8289 38.4513 41.3958V15.8768C38.4513 12.4437 35.6682 9.66064 32.2351 9.66064Z" fill="#FF5634"/>
<path id="Vector_3" d="M32.0715 28.4727C32.0715 30.1268 31.7457 31.7648 31.1127 33.293C30.4797 34.8212 29.5519 36.2097 28.3823 37.3794C27.2126 38.549 25.8241 39.4768 24.2959 40.1098C22.7677 40.7428 21.1297 41.0686 19.4756 41.0686C17.8215 41.0686 16.1836 40.7428 14.6554 40.1098C13.1272 39.4768 11.7386 38.549 10.569 37.3794C9.39937 36.2097 8.47157 34.8212 7.83857 33.293C7.20556 31.7648 6.87976 30.1268 6.87976 28.4727H11.9089C11.9089 29.4664 12.1046 30.4504 12.4849 31.3684C12.8651 32.2864 13.4225 33.1206 14.1251 33.8232C14.8278 34.5259 15.6619 35.0832 16.58 35.4635C17.498 35.8438 18.4819 36.0395 19.4756 36.0395C20.4693 36.0395 21.4533 35.8438 22.3713 35.4635C23.2893 35.0832 24.1235 34.5259 24.8261 33.8232C25.5288 33.1206 26.0861 32.2864 26.4664 31.3684C26.8467 30.4504 27.0424 29.4664 27.0424 28.4727H32.0715Z" fill="white"/>
<path id="Vector_4" d="M48.3853 34.6104H54.7081C60.6453 34.6104 64.8605 30.9349 64.8605 25.7687C64.8605 20.6025 60.6453 16.9528 54.7081 16.9528H48.3853V34.6104ZM52.1635 31.1662V20.3969H55.1964C58.5634 20.3969 60.9538 22.633 60.9538 25.7687C60.9538 28.9301 58.5634 31.1662 55.1964 31.1662H52.1635ZM73.9526 31.6032C72.3847 31.6032 71.2281 30.6265 70.7912 29.1871H80.3782C80.3782 24.1752 77.9364 21.0138 73.7726 21.0138C69.8916 21.0138 66.9358 23.9181 66.9358 27.9277C66.9358 32.0144 70.0201 34.9188 73.9783 34.9188C75.9316 34.9188 78.2192 34.0963 79.4015 32.8626L77.0111 30.4209C76.2915 31.1148 75.0064 31.6032 73.9526 31.6032ZM73.9269 24.3294C75.4433 24.3294 76.42 25.1776 76.7798 26.4884H70.8426C71.3309 25.1519 72.5132 24.3294 73.9269 24.3294ZM82.9169 34.6104H86.6694V16.6443H82.9169V34.6104ZM91.8212 19.4973C92.9264 19.4973 93.826 18.572 93.826 17.4411C93.826 16.3873 92.9264 15.4363 91.8212 15.4363C90.6646 15.4363 89.765 16.3873 89.765 17.4411C89.765 18.572 90.6646 19.4973 91.8212 19.4973ZM89.9192 34.6104H93.6718V21.3222H89.9192V34.6104ZM101.394 34.6104H104.864L110.544 21.3222H106.638L103.142 30.2923L99.5695 21.3222H95.637L101.394 34.6104ZM117.978 31.6032C116.41 31.6032 115.254 30.6265 114.817 29.1871H124.404C124.404 24.1752 121.962 21.0138 117.798 21.0138C113.917 21.0138 110.961 23.9181 110.961 27.9277C110.961 32.0144 114.046 34.9188 118.004 34.9188C119.957 34.9188 122.245 34.0963 123.427 32.8626L121.037 30.4209C120.317 31.1148 119.032 31.6032 117.978 31.6032ZM117.952 24.3294C119.469 24.3294 120.445 25.1776 120.805 26.4884H114.868C115.356 25.1519 116.539 24.3294 117.952 24.3294ZM130.695 23.7896V21.3222H126.942V34.6104H130.695V28.2618C130.695 25.7687 132.468 24.1752 135.244 24.1752V21.0138C133.214 21.0138 131.569 22.0676 130.695 23.7896ZM160.78 16.9528H156.359L152.118 22.7358L147.878 16.9528H143.405L149.857 25.8201L143.405 34.6104H147.8L152.067 28.8273L156.282 34.6104H160.78L154.303 25.743L160.78 16.9528Z" fill="#121212"/>
</g>
<defs>
<clipPath id="clip0_1_580">
<rect width="161" height="48" fill="white" transform="translate(0.5 0.5)"/>
</clipPath>
</defs>
</svg>
